<?xml version="1.0" encoding="UTF-8" standalone="no"?>
<!-- Created with Inkscape (http://www.inkscape.org/) -->

<svg
   xmlns:dc="http://purl.org/dc/elements/1.1/"
   xmlns:cc="http://creativecommons.org/ns#"
   xmlns:rdf="http://www.w3.org/1999/02/22-rdf-syntax-ns#"
   xmlns:svg="http://www.w3.org/2000/svg"
   xmlns="http://www.w3.org/2000/svg"
   xmlns:sodipodi="http://sodipodi.sourceforge.net/DTD/sodipodi-0.dtd"
   xmlns:inkscape="http://www.inkscape.org/namespaces/inkscape"
   width="720"
   height="720"
   viewBox="0 0 720.00001 720.00001"
   id="svg2"
   version="1.1"
   inkscape:version="0.91 r"
   sodipodi:docname="tools-au.svg"
   inkscape:export-filename="/home/ocpm/Metcalfe/src/assets/img/tools-au.png"
   inkscape:export-xdpi="4.375"
   inkscape:export-ydpi="4.375">
  <defs
     id="defs4" />
  <sodipodi:namedview
     id="base"
     pagecolor="#ffffff"
     bordercolor="#666666"
     borderopacity="1.0"
     inkscape:pageopacity="0.0"
     inkscape:pageshadow="2"
     inkscape:zoom="0.5"
     inkscape:cx="445.1785"
     inkscape:cy="467.01194"
     inkscape:document-units="px"
     inkscape:current-layer="g4370"
     showgrid="false"
     units="px"
     inkscape:snap-object-midpoints="true"
     inkscape:snap-center="true"
     showguides="true"
     inkscape:guide-bbox="true"
     inkscape:window-width="1366"
     inkscape:window-height="721"
     inkscape:window-x="0"
     inkscape:window-y="0"
     inkscape:window-maximized="1"
     inkscape:object-paths="true"
     inkscape:snap-global="true"
     inkscape:snap-intersection-paths="true"
     inkscape:object-nodes="true"
     inkscape:snap-smooth-nodes="true"
     inkscape:snap-midpoints="true">
    <sodipodi:guide
       position="360.00002,359.99998"
       orientation="1,0"
       id="guide4528" />
    <sodipodi:guide
       position="360.00001,359.99998"
       orientation="0,1"
       id="guide4530" />
    <sodipodi:guide
       position="1.0556718e-05,462"
       orientation="1,0"
       id="guide4532" />
    <sodipodi:guide
       position="190,719.99999"
       orientation="0,1"
       id="guide4534" />
    <sodipodi:guide
       position="244,-2.2617188e-05"
       orientation="0,1"
       id="guide4536" />
    <sodipodi:guide
       position="720.00002,258"
       orientation="1,0"
       id="guide4538" />
  </sodipodi:namedview>
  <metadata
     id="metadata7">
    <rdf:RDF>
      <cc:Work
         rdf:about="">
        <dc:format>image/svg+xml</dc:format>
        <dc:type
           rdf:resource="http://purl.org/dc/dcmitype/StillImage" />
        <dc:title></dc:title>
      </cc:Work>
    </rdf:RDF>
  </metadata>
  <g
     inkscape:label="Layer 1"
     inkscape:groupmode="layer"
     id="layer1"
     transform="translate(0,-332.36216)">
    <path
       style="opacity:0.98999999;fill:#464646;fill-opacity:1;stroke:#000000;stroke-width:0;stroke-miterlimit:4;stroke-dasharray:none;stroke-opacity:1"
       d="m -361.24212,1316.3602 c -27.7,0 -50,22.3 -50,50 l 0,40.002 -74.58789,0 c -27.7,0 -50,22.3 -50,50 l 0,530 c 0,27.7 22.3,50 50,50 l 310,0 310,0 c 27.7,0 50,-22.3 50,-50 l 0,-530 c 0,-27.7 -22.3,-50 -50,-50 l -74.587892,0 0,-40.002 c 0,-27.7 -22.3,-50 -50.0000004,-50 l -35.2519496,0 c -27.70001,0 -50,22.3 -50,50 l 0,40.002 -100.160158,0 -100.16016,0 0,-40.002 c 0,-27.7 -22.3,-50 -50,-50 l -35.25195,0 z m 10.75977,27.0449 12.65429,0 c 17.26753,0 31.16992,13.9005 31.16993,31.168 l 0,77.7226 c 0,17.2676 -13.9024,31.168 -31.16993,31.168 l -12.65429,0 c -17.26753,0 -31.16993,-13.9004 -31.16993,-31.168 l 0,-77.7226 c 0,-17.2675 13.9024,-31.168 31.16993,-31.168 z m 336.650388,0 12.6542896,0 c 17.2675304,0 31.1699304,13.9005 31.1699304,31.168 l 0,77.7226 c 0,17.2676 -13.9024,31.168 -31.1699304,31.168 l -12.6542896,0 c -17.26753,0 -31.16993,-13.9004 -31.16993,-31.168 l 0,-77.7226 c 0,-17.2675 13.9024,-31.168 31.16993,-31.168 z m -492.005858,170.0586 154.95508,0 0,155 -154.95508,0 0,-155 z m 168.3164,0 155.00977,0 0,155 -155.00977,0 0,-155 z m 168.37305,0 155.009768,0 0,155 -155.009768,0 0,-155 z m 168.37108758,0 154.95508242,0 0,155 -154.95508242,0 0,-155 z M -505.83782,1681.827 l 154.95508,0 0,155 -154.95508,0 0,-155 z m 168.3164,0 155.00977,0 0,155 -155.00977,0 0,-155 z m 168.37305,0 155.009768,0 0,155 -155.009768,0 0,-155 z m 168.37108758,0 154.95508242,0 0,155 -154.95508242,0 0,-155 z m -505.06053758,168.3633 154.95508,0 0,156.1719 -154.95508,0 0,-156.1719 z m 168.3164,0 155.00977,0 0,156.1719 -155.00977,0 0,-156.1719 z m 168.37305,0 155.009768,0 0,156.1719 -155.009768,0 0,-156.1719 z m 168.37108758,0 154.95508242,0 0,156.1719 -154.95508242,0 0,-156.1719 z"
       id="rect4171"
       inkscape:connector-curvature="0" />
    <rect
       style="opacity:0.98999999;fill:#22ff00;fill-opacity:1;stroke:#000000;stroke-width:0;stroke-miterlimit:4;stroke-dasharray:none;stroke-opacity:1"
       id="rect4219"
       width="29.99999"
       height="13.75"
       x="640.46442"
       y="300.28088"
       transform="matrix(0,1,-1,0,0,0)" />
    <rect
       style="color:#000000;clip-rule:nonzero;display:inline;overflow:visible;visibility:visible;opacity:0.98999999;isolation:auto;mix-blend-mode:normal;color-interpolation:sRGB;color-interpolation-filters:linearRGB;solid-color:#000000;solid-opacity:1;fill:#00ff00;fill-opacity:1;fill-rule:nonzero;stroke:#000000;stroke-width:0;stroke-linecap:butt;stroke-linejoin:miter;stroke-miterlimit:4;stroke-dasharray:none;stroke-dashoffset:0;stroke-opacity:1;color-rendering:auto;image-rendering:auto;shape-rendering:auto;text-rendering:auto;enable-background:accumulate"
       id="rect4294"
       width="155.00085"
       height="155.00085"
       x="-640.91864"
       y="529.46356" />
    <rect
       style="color:#000000;clip-rule:nonzero;display:inline;overflow:visible;visibility:visible;opacity:0.98999999;isolation:auto;mix-blend-mode:normal;color-interpolation:sRGB;color-interpolation-filters:linearRGB;solid-color:#000000;solid-opacity:1;fill:#00ff00;fill-opacity:1;fill-rule:nonzero;stroke:#000000;stroke-width:0;stroke-linecap:butt;stroke-linejoin:miter;stroke-miterlimit:4;stroke-dasharray:none;stroke-dashoffset:0;stroke-opacity:1;color-rendering:auto;image-rendering:auto;shape-rendering:auto;text-rendering:auto;enable-background:accumulate"
       id="rect4294-2"
       width="155.00085"
       height="155.00085"
       x="-809.28174"
       y="529.46356" />
    <rect
       style="color:#000000;clip-rule:nonzero;display:inline;overflow:visible;visibility:visible;opacity:0.98999999;isolation:auto;mix-blend-mode:normal;color-interpolation:sRGB;color-interpolation-filters:linearRGB;solid-color:#000000;solid-opacity:1;fill:#00ff00;fill-opacity:1;fill-rule:nonzero;stroke:#000000;stroke-width:0;stroke-linecap:butt;stroke-linejoin:miter;stroke-miterlimit:4;stroke-dasharray:none;stroke-dashoffset:0;stroke-opacity:1;color-rendering:auto;image-rendering:auto;shape-rendering:auto;text-rendering:auto;enable-background:accumulate"
       id="rect4294-1"
       width="155.00085"
       height="155.00085"
       x="-640.91864"
       y="697.82666" />
    <rect
       style="color:#000000;clip-rule:nonzero;display:inline;overflow:visible;visibility:visible;opacity:0.98999999;isolation:auto;mix-blend-mode:normal;color-interpolation:sRGB;color-interpolation-filters:linearRGB;solid-color:#000000;solid-opacity:1;fill:#00ff00;fill-opacity:1;fill-rule:nonzero;stroke:#000000;stroke-width:0;stroke-linecap:butt;stroke-linejoin:miter;stroke-miterlimit:4;stroke-dasharray:none;stroke-dashoffset:0;stroke-opacity:1;color-rendering:auto;image-rendering:auto;shape-rendering:auto;text-rendering:auto;enable-background:accumulate"
       id="rect4294-2-9"
       width="155.00085"
       height="155.00085"
       x="-809.28168"
       y="697.82666" />
    <rect
       style="color:#000000;clip-rule:nonzero;display:inline;overflow:visible;visibility:visible;opacity:0.98999999;isolation:auto;mix-blend-mode:normal;color-interpolation:sRGB;color-interpolation-filters:linearRGB;solid-color:#000000;solid-opacity:1;fill:#00ff00;fill-opacity:1;fill-rule:nonzero;stroke:#000000;stroke-width:0;stroke-linecap:butt;stroke-linejoin:miter;stroke-miterlimit:4;stroke-dasharray:none;stroke-dashoffset:0;stroke-opacity:1;color-rendering:auto;image-rendering:auto;shape-rendering:auto;text-rendering:auto;enable-background:accumulate"
       id="rect4294-1-7"
       width="155.00085"
       height="155.00085"
       x="-640.91858"
       y="866.18976" />
    <rect
       style="color:#000000;clip-rule:nonzero;display:inline;overflow:visible;visibility:visible;opacity:0.98999999;isolation:auto;mix-blend-mode:normal;color-interpolation:sRGB;color-interpolation-filters:linearRGB;solid-color:#000000;solid-opacity:1;fill:#00ff00;fill-opacity:1;fill-rule:nonzero;stroke:#000000;stroke-width:0;stroke-linecap:butt;stroke-linejoin:miter;stroke-miterlimit:4;stroke-dasharray:none;stroke-dashoffset:0;stroke-opacity:1;color-rendering:auto;image-rendering:auto;shape-rendering:auto;text-rendering:auto;enable-background:accumulate"
       id="rect4294-2-9-1"
       width="155.00085"
       height="155.00085"
       x="-809.28168"
       y="866.18976" />
    <path
       style="color:#000000;font-style:normal;font-variant:normal;font-weight:normal;font-stretch:normal;font-size:medium;line-height:normal;font-family:sans-serif;text-indent:0;text-align:start;text-decoration:none;text-decoration-line:none;text-decoration-style:solid;text-decoration-color:#000000;letter-spacing:normal;word-spacing:normal;text-transform:none;direction:ltr;block-progression:tb;writing-mode:lr-tb;baseline-shift:baseline;text-anchor:start;white-space:normal;clip-rule:nonzero;display:inline;overflow:visible;visibility:visible;opacity:0.98999999;isolation:auto;mix-blend-mode:normal;color-interpolation:sRGB;color-interpolation-filters:linearRGB;solid-color:#000000;solid-opacity:1;fill:#000000;fill-opacity:1;fill-rule:nonzero;stroke:none;stroke-width:30;stroke-linecap:butt;stroke-linejoin:miter;stroke-miterlimit:4;stroke-dasharray:none;stroke-dashoffset:0;stroke-opacity:1;color-rendering:auto;image-rendering:auto;shape-rendering:auto;text-rendering:auto;enable-background:accumulate"
       d="m 1392.2939,-789.40624 c -25.2795,-25.27945 -66.6444,-25.27949 -91.9239,0 l -413.29003,413.29009 c -25.27945,25.27945 -29.40705,71.59346 0,91.92389 L 1300.3687,1.533019 c 29.407,20.3304 62.5168,20.3304 91.9238,0 l 413.2901,-285.726649 c 29.4071,-20.33049 25.2794,-66.64446 0,-91.92388 z m -21.2132,21.21321 413.2887,413.28872 c 13.8943,13.8943 16.1629,38.32329 0,49.49748 l -413.2901,285.726649 c -16.1629,11.1741 -33.3345,11.1741 -49.4974,0 L 908.29317,-305.40547 c -16.16291,-11.17415 -13.89427,-35.60321 0,-49.49747 l 413.29003,-413.29009 c 13.8943,-13.8943 35.6032,-13.89427 49.4975,0 z"
       id="rect4542-0"
       inkscape:connector-curvature="0"
       sodipodi:nodetypes="ssssssssssssssssss" />
    <path
       style="color:#000000;clip-rule:nonzero;display:inline;overflow:visible;visibility:visible;opacity:0.98999999;isolation:auto;mix-blend-mode:normal;color-interpolation:sRGB;color-interpolation-filters:linearRGB;solid-color:#000000;solid-opacity:1;fill:#1a1a1a;fill-opacity:1;fill-rule:nonzero;stroke:#000000;stroke-width:0;stroke-linecap:butt;stroke-linejoin:miter;stroke-miterlimit:4;stroke-dasharray:none;stroke-dashoffset:0;stroke-opacity:1;color-rendering:auto;image-rendering:auto;shape-rendering:auto;text-rendering:auto;enable-background:accumulate"
       d="m 340.53824,1449.871 c -27.7,0 -50,22.3 -50,50 l 0,89.9511 293.34569,178.3028 c 9.32746,5.5182 38.574,23.9804 66.6543,23.9804 28.0803,0 57.32684,-18.4622 66.6543,-23.9804 l 293.34567,-178.3028 0,-89.9511 c 0,-27.7 -22.29997,-50 -49.99997,-50 l -310,0 z m -50,175.8281 0,314.1719 c 0,27.7 22.3,50 50,50 l 309.99999,0 310,0 c 27.7,0 49.99997,-22.3 49.99997,-50 l 0,-314.1719 -274.78513,165.4707 c -21.98867,12.8316 -50.70714,33.3066 -85.21484,33.3066 -34.5077,0 -63.22617,-20.475 -85.21484,-33.3066 z"
       id="rect4505-8"
       inkscape:connector-curvature="0"
       sodipodi:nodetypes="sscczccsscscsscssccscc" />
    <flowRoot
       xml:space="preserve"
       id="flowRoot4598"
       style="font-style:normal;font-weight:normal;font-size:900px;line-height:125%;font-family:sans-serif;letter-spacing:-2.83999944px;word-spacing:0px;fill:#000000;fill-opacity:1;stroke:none;stroke-width:1px;stroke-linecap:butt;stroke-linejoin:miter;stroke-opacity:1"
       transform="matrix(0.62433737,0,0,0.62433737,-2196.1205,63.702053)"><flowRegion
         id="flowRegion4600"><rect
           id="rect4602"
           width="1536"
           height="1232"
           x="2080"
           y="1144"
           style="font-size:900px;letter-spacing:-2.83999944px;fill:#000000" /></flowRegion><flowPara
         id="flowPara4604"
         style="font-style:normal;font-variant:normal;font-weight:bold;font-stretch:normal;font-size:900px;line-height:100%;font-family:sans-serif;-inkscape-font-specification:'sans-serif Bold';letter-spacing:-50px;fill:#000000">EN</flowPara></flowRoot>    <g
       id="g4370"
       transform="matrix(1.509915,0,0,1.509915,28.812357,359.00659)">
      <path
         id="path4333"
         d="m 220.01041,232.44954 c 0,-100.88612 -59.62738,-221.271233 -209.402283,-249.813243 18.933809,18.08602446 58.496993,53.410297 56.518829,124.906623 -1.695555,71.49632 62.453314,149.20973 154.579004,146.66639 -0.84777,-6.49969 -1.69555,-21.75977 -1.69555,-21.75977 z"
         class="st2"
         inkscape:connector-curvature="0"
         style="fill:#e83d80" />
      <path
         id="path4335"
         d="m 218.59743,232.44954 c 0,-100.88612 59.62737,-221.271233 209.40229,-249.813243 -18.93382,18.08602446 -58.497,53.410297 -56.51884,124.906623 1.69556,71.49632 -62.45331,149.20973 -154.57902,146.66639 0.56519,-6.49969 1.69557,-21.75977 1.69557,-21.75977 z"
         class="st2"
         inkscape:connector-curvature="0"
         style="fill:#e83d80" />
      <path
         id="path4337"
         d="M 218.88003,254.20931 C 142.297,257.31784 69.10512,308.46738 67.409551,412.74463 c 0,17.52084 -4.521504,33.34611 -7.347444,41.25875 C 152.1878,416.13576 203.05476,347.74797 218.88003,254.20931 Z"
         class="st2"
         inkscape:connector-curvature="0"
         style="fill:#e83d80" />
      <path
         id="path4339"
         d="m 218.59743,254.20931 c 76.58302,3.10853 149.77491,54.25807 151.47048,158.53532 0,17.52084 4.5215,33.34611 7.34745,41.25875 C 285.00706,416.13576 234.14011,347.74797 218.59743,254.20931 Z"
         class="st2"
         inkscape:connector-curvature="0"
         style="fill:#e83d80" />
      <path
         id="path4341"
         d="M 185.53392,102.17363 C 153.31818,46.219983 96.799348,-0.97324359 10.325532,-17.363703 c 18.93381,18.08602446 58.496993,53.410297 56.51883,124.906623 -0.847772,29.1072 9.608211,59.06218 27.976822,84.49565 37.585036,-21.47715 68.952986,-52.5625 90.712736,-89.86494 z"
         class="st3"
         inkscape:connector-curvature="0"
         style="fill:#e83371" />
      <path
         id="path4343"
         d="m 253.07392,102.17363 c 32.21573,-56.23624 88.73457,-103.14687359 174.9258,-119.819928 -18.93382,18.08602595 -58.497,53.410297 -56.51884,124.906618 0.84779,29.1072 -9.60821,59.06219 -27.97682,84.49566 -37.58504,-21.19456 -68.67039,-52.27991 -90.43014,-89.58235 z"
         class="st3"
         inkscape:connector-curvature="0"
         style="fill:#e83371" />
      <path
         id="path4345"
         d="m 427.99972,-17.363703 c -32.21575,6.217069 -59.90998,16.39045941 -84.21307,29.95498 14.6949,8.76042 29.38979,20.629375 39.56319,29.107199 12.99932,-29.672388 33.06351,-47.7584148 44.64988,-59.062179 z"
         class="st4"
         inkscape:connector-curvature="0"
         style="fill:#eb5c91" />
      <path
         id="path4347"
         d="m 371.48088,93.130619 0.2826,0 c 1.69555,-32.498332 12.43413,-56.518837 24.58568,-74.604864 -14.69489,-2.543348 -42.10652,-6.78226 -51.14955,-6.499667 -0.56517,0.282595 -1.13036,0.565189 -1.69555,0.847784 22.04234,31.650546 24.86828,57.649213 27.97682,80.256747 z"
         class="st5"
         inkscape:connector-curvature="0"
         style="fill:#d32d6c" />
      <path
         id="path4349"
         d="m 10.042938,-17.363703 c 32.215736,6.217069 59.909967,16.39045941 84.213057,29.95498 C 79.561103,21.351697 64.866211,33.220652 54.692818,41.698476 41.976079,12.026088 21.911894,-6.0599388 10.042938,-17.363703 Z"
         class="st4"
         inkscape:connector-curvature="0"
         style="fill:#eb5c91" />
      <path
         id="path4351"
         d="m 66.844362,93.130619 -0.282595,0 C 64.866211,60.632287 54.12763,36.611782 41.976079,18.525755 c 14.694898,-2.543348 42.106528,-6.78226 51.14955,-6.499667 0.565189,0.282595 1.130366,0.565189 1.695555,0.847784 C 72.496245,44.524418 69.67031,70.523085 66.844362,93.130619 Z"
         class="st5"
         inkscape:connector-curvature="0"
         style="fill:#d32d6c" />
      <path
         id="path4353"
         d="m 219.16262,225.10209 c -47.75842,0 -89.58235,-13.84711 -127.167371,-37.30243 27.411631,40.97616 74.039661,67.82261 127.167371,67.82261 50.30176,0 100.88612,-26.56385 127.73256,-68.1052 -35.04168,20.91196 -84.21306,37.58502 -127.73256,37.58502 z"
         class="st5"
         inkscape:connector-curvature="0"
         style="fill:#d32d6c" />
      <path
         id="path4355"
         d="m 370.06791,414.44019 c 0.28259,16.95566 4.5215,32.21574 7.34745,39.84578 -13.28193,-5.65188 -25.71608,-11.58636 -37.58503,-18.36862 11.58636,-7.06485 22.32494,-15.26008 30.23758,-21.47716 z"
         class="st5"
         inkscape:connector-curvature="0"
         style="fill:#d32d6c" />
      <path
         id="path4357"
         d="m 370.6331,424.61358 c 1.41297,12.71674 4.5215,23.45532 6.78226,29.67239 -3.95633,-1.69557 -7.91264,-3.39112 -11.58636,-5.08669 2.26074,-7.91264 3.95631,-16.10787 4.8041,-24.5857 z"
         class="st3"
         inkscape:connector-curvature="0"
         style="fill:#e83371" />
      <path
         id="path4359"
         d="m 67.409551,414.44019 c -0.282595,16.95566 -4.521504,32.21574 -7.347444,39.84578 C 73.34403,448.63409 85.778176,442.69961 97.647133,435.91735 85.778176,428.8525 75.039599,420.65727 67.409551,414.44019 Z"
         class="st5"
         inkscape:connector-curvature="0"
         style="fill:#d32d6c" />
      <path
         id="path4361"
         d="m 66.561767,424.61358 c -1.412961,12.71674 -4.521504,23.45532 -6.782254,29.67239 3.956319,-1.69557 7.912633,-3.39112 11.586366,-5.08669 -2.260759,-7.91264 -3.673733,-16.10787 -4.804112,-24.5857 z"
         class="st3"
         inkscape:connector-curvature="0"
         style="fill:#e83371" />
    </g>
  </g>
  <style
     id="style4297"
     type="text/css">
	.st0{fill:#4A4949;}
	.st1{fill:#2D2D2D;}
	.st2{fill:#E83D80;}
	.st3{fill:#E83371;}
	.st4{fill:#EB5C91;}
	.st5{fill:#D32D6C;}
</style>
</svg>
