<?xml version="1.0" encoding="UTF-8" standalone="no"?>
<!-- Created with Inkscape (http://www.inkscape.org/) -->

<svg
   xmlns:dc="http://purl.org/dc/elements/1.1/"
   xmlns:cc="http://creativecommons.org/ns#"
   xmlns:rdf="http://www.w3.org/1999/02/22-rdf-syntax-ns#"
   xmlns:svg="http://www.w3.org/2000/svg"
   xmlns="http://www.w3.org/2000/svg"
   xmlns:sodipodi="http://sodipodi.sourceforge.net/DTD/sodipodi-0.dtd"
   xmlns:inkscape="http://www.inkscape.org/namespaces/inkscape"
   width="720"
   height="720"
   viewBox="0 0 720.00001 720.00001"
   id="svg2"
   version="1.1"
   inkscape:version="0.91 r"
   sodipodi:docname="tools-calendar.svg">
  <defs
     id="defs4" />
  <sodipodi:namedview
     id="base"
     pagecolor="#ffffff"
     bordercolor="#666666"
     borderopacity="1.0"
     inkscape:pageopacity="0.0"
     inkscape:pageshadow="2"
     inkscape:zoom="0.5"
     inkscape:cx="277.05593"
     inkscape:cy="454.39565"
     inkscape:document-units="px"
     inkscape:current-layer="layer1"
     showgrid="false"
     units="px"
     inkscape:snap-object-midpoints="true"
     inkscape:snap-center="true"
     showguides="false"
     inkscape:guide-bbox="true"
     inkscape:window-width="1366"
     inkscape:window-height="721"
     inkscape:window-x="0"
     inkscape:window-y="0"
     inkscape:window-maximized="1"
     inkscape:object-paths="true"
     inkscape:snap-global="true"
     inkscape:snap-intersection-paths="true"
     inkscape:object-nodes="true"
     inkscape:snap-smooth-nodes="true"
     inkscape:snap-midpoints="true">
    <sodipodi:guide
       position="360.00001,360.00001"
       orientation="1,0"
       id="guide4173" />
    <sodipodi:guide
       position="194.99613,264.54979"
       orientation="0,1"
       id="guide4175" />
    <sodipodi:guide
       position="650.00001,720.00002"
       orientation="0,1"
       id="guide4179" />
    <sodipodi:guide
       position="242.85715,7.9003909e-06"
       orientation="0,1"
       id="guide4181" />
    <sodipodi:guide
       position="107.49262,522.89861"
       orientation="0,1"
       id="guide4185" />
    <sodipodi:guide
       position="-173.57144,630"
       orientation="0,1"
       id="guide4189" />
    <sodipodi:guide
       position="540.00001,252.85716"
       orientation="1,0"
       id="guide4195" />
    <sodipodi:guide
       position="29.992258,473.25001"
       orientation="1,0"
       id="guide4221" />
    <sodipodi:guide
       position="152.72492,29.999978"
       orientation="0,1"
       id="guide4225" />
    <sodipodi:guide
       position="191.62793,192.8535"
       orientation="1,0"
       id="guide4455" />
  </sodipodi:namedview>
  <metadata
     id="metadata7">
    <rdf:RDF>
      <cc:Work
         rdf:about="">
        <dc:format>image/svg+xml</dc:format>
        <dc:type
           rdf:resource="http://purl.org/dc/dcmitype/StillImage" />
        <dc:title></dc:title>
      </cc:Work>
    </rdf:RDF>
  </metadata>
  <g
     inkscape:label="Layer 1"
     inkscape:groupmode="layer"
     id="layer1"
     transform="translate(0,-332.36216)">
    <path
       style="opacity:0.98999999;fill:#464646;fill-opacity:1;stroke:#000000;stroke-width:0;stroke-miterlimit:4;stroke-dasharray:none;stroke-opacity:1"
       d="M 174.58789 -0.001953125 C 146.88789 -0.001953125 124.58789 22.298047 124.58789 49.998047 L 124.58789 90 L 50 90 C 22.3 90 0 112.3 0 140 L 0 670 C 0 697.7 22.3 720 50 720 L 360 720 L 670 720 C 697.7 720 720 697.7 720 670 L 720 140 C 720 112.3 697.7 90 670 90 L 595.41211 90 L 595.41211 49.998047 C 595.41211 22.298047 573.11211 -0.001953125 545.41211 -0.001953125 L 510.16016 -0.001953125 C 482.46015 -0.001953125 460.16016 22.298047 460.16016 49.998047 L 460.16016 90 L 360 90 L 259.83984 90 L 259.83984 49.998047 C 259.83984 22.298047 237.53984 -0.001953125 209.83984 -0.001953125 L 174.58789 -0.001953125 z M 185.34766 27.042969 L 198.00195 27.042969 C 215.26948 27.042969 229.17187 40.943404 229.17188 58.210938 L 229.17188 135.93359 C 229.17188 153.20112 215.26948 167.10156 198.00195 167.10156 L 185.34766 167.10156 C 168.08013 167.10156 154.17773 153.20112 154.17773 135.93359 L 154.17773 58.210938 C 154.17773 40.943404 168.08013 27.042969 185.34766 27.042969 z M 521.99805 27.042969 L 534.65234 27.042969 C 551.91987 27.042969 565.82227 40.943398 565.82227 58.210938 L 565.82227 135.93359 C 565.82227 153.20112 551.91987 167.10156 534.65234 167.10156 L 521.99805 167.10156 C 504.73052 167.10156 490.82812 153.20112 490.82812 135.93359 L 490.82812 58.210938 C 490.82812 40.943397 504.73052 27.042969 521.99805 27.042969 z M 29.992188 197.10156 L 184.94727 197.10156 L 184.94727 352.10156 L 29.992188 352.10156 L 29.992188 197.10156 z M 198.30859 197.10156 L 353.31836 197.10156 L 353.31836 352.10156 L 198.30859 352.10156 L 198.30859 197.10156 z M 366.68164 197.10156 L 521.69141 197.10156 L 521.69141 352.10156 L 366.68164 352.10156 L 366.68164 197.10156 z M 535.05273 197.10156 L 690.00781 197.10156 L 690.00781 352.10156 L 535.05273 352.10156 L 535.05273 197.10156 z M 29.992188 365.46484 L 184.94727 365.46484 L 184.94727 520.46484 L 29.992188 520.46484 L 29.992188 365.46484 z M 198.30859 365.46484 L 353.31836 365.46484 L 353.31836 520.46484 L 198.30859 520.46484 L 198.30859 365.46484 z M 366.68164 365.46484 L 521.69141 365.46484 L 521.69141 520.46484 L 366.68164 520.46484 L 366.68164 365.46484 z M 535.05273 365.46484 L 690.00781 365.46484 L 690.00781 520.46484 L 535.05273 520.46484 L 535.05273 365.46484 z M 29.992188 533.82812 L 184.94727 533.82812 L 184.94727 690 L 29.992188 690 L 29.992188 533.82812 z M 198.30859 533.82812 L 353.31836 533.82812 L 353.31836 690 L 198.30859 690 L 198.30859 533.82812 z M 366.68164 533.82812 L 521.69141 533.82812 L 521.69141 690 L 366.68164 690 L 366.68164 533.82812 z M 535.05273 533.82812 L 690.00781 533.82812 L 690.00781 690 L 535.05273 690 L 535.05273 533.82812 z "
       transform="translate(0,332.36216)"
       id="rect4171" />
    <rect
       style="opacity:0.98999999;fill:#22ff00;fill-opacity:1;stroke:#000000;stroke-width:0;stroke-miterlimit:4;stroke-dasharray:none;stroke-opacity:1"
       id="rect4219"
       width="29.99999"
       height="13.75"
       x="640.46442"
       y="300.28088"
       transform="matrix(0,1,-1,0,0,0)" />
    <rect
       style="color:#000000;clip-rule:nonzero;display:inline;overflow:visible;visibility:visible;opacity:0.98999999;isolation:auto;mix-blend-mode:normal;color-interpolation:sRGB;color-interpolation-filters:linearRGB;solid-color:#000000;solid-opacity:1;fill:#00ff00;fill-opacity:1;fill-rule:nonzero;stroke:#000000;stroke-width:0;stroke-linecap:butt;stroke-linejoin:miter;stroke-miterlimit:4;stroke-dasharray:none;stroke-dashoffset:0;stroke-opacity:1;color-rendering:auto;image-rendering:auto;shape-rendering:auto;text-rendering:auto;enable-background:accumulate"
       id="rect4294"
       width="155.00085"
       height="155.00085"
       x="-640.91864"
       y="529.46356" />
    <rect
       style="color:#000000;clip-rule:nonzero;display:inline;overflow:visible;visibility:visible;opacity:0.98999999;isolation:auto;mix-blend-mode:normal;color-interpolation:sRGB;color-interpolation-filters:linearRGB;solid-color:#000000;solid-opacity:1;fill:#00ff00;fill-opacity:1;fill-rule:nonzero;stroke:#000000;stroke-width:0;stroke-linecap:butt;stroke-linejoin:miter;stroke-miterlimit:4;stroke-dasharray:none;stroke-dashoffset:0;stroke-opacity:1;color-rendering:auto;image-rendering:auto;shape-rendering:auto;text-rendering:auto;enable-background:accumulate"
       id="rect4294-2"
       width="155.00085"
       height="155.00085"
       x="-809.28174"
       y="529.46356" />
    <rect
       style="color:#000000;clip-rule:nonzero;display:inline;overflow:visible;visibility:visible;opacity:0.98999999;isolation:auto;mix-blend-mode:normal;color-interpolation:sRGB;color-interpolation-filters:linearRGB;solid-color:#000000;solid-opacity:1;fill:#00ff00;fill-opacity:1;fill-rule:nonzero;stroke:#000000;stroke-width:0;stroke-linecap:butt;stroke-linejoin:miter;stroke-miterlimit:4;stroke-dasharray:none;stroke-dashoffset:0;stroke-opacity:1;color-rendering:auto;image-rendering:auto;shape-rendering:auto;text-rendering:auto;enable-background:accumulate"
       id="rect4294-1"
       width="155.00085"
       height="155.00085"
       x="-640.91864"
       y="697.82666" />
    <rect
       style="color:#000000;clip-rule:nonzero;display:inline;overflow:visible;visibility:visible;opacity:0.98999999;isolation:auto;mix-blend-mode:normal;color-interpolation:sRGB;color-interpolation-filters:linearRGB;solid-color:#000000;solid-opacity:1;fill:#00ff00;fill-opacity:1;fill-rule:nonzero;stroke:#000000;stroke-width:0;stroke-linecap:butt;stroke-linejoin:miter;stroke-miterlimit:4;stroke-dasharray:none;stroke-dashoffset:0;stroke-opacity:1;color-rendering:auto;image-rendering:auto;shape-rendering:auto;text-rendering:auto;enable-background:accumulate"
       id="rect4294-2-9"
       width="155.00085"
       height="155.00085"
       x="-809.28168"
       y="697.82666" />
    <rect
       style="color:#000000;clip-rule:nonzero;display:inline;overflow:visible;visibility:visible;opacity:0.98999999;isolation:auto;mix-blend-mode:normal;color-interpolation:sRGB;color-interpolation-filters:linearRGB;solid-color:#000000;solid-opacity:1;fill:#00ff00;fill-opacity:1;fill-rule:nonzero;stroke:#000000;stroke-width:0;stroke-linecap:butt;stroke-linejoin:miter;stroke-miterlimit:4;stroke-dasharray:none;stroke-dashoffset:0;stroke-opacity:1;color-rendering:auto;image-rendering:auto;shape-rendering:auto;text-rendering:auto;enable-background:accumulate"
       id="rect4294-1-7"
       width="155.00085"
       height="155.00085"
       x="-640.91858"
       y="866.18976" />
    <rect
       style="color:#000000;clip-rule:nonzero;display:inline;overflow:visible;visibility:visible;opacity:0.98999999;isolation:auto;mix-blend-mode:normal;color-interpolation:sRGB;color-interpolation-filters:linearRGB;solid-color:#000000;solid-opacity:1;fill:#00ff00;fill-opacity:1;fill-rule:nonzero;stroke:#000000;stroke-width:0;stroke-linecap:butt;stroke-linejoin:miter;stroke-miterlimit:4;stroke-dasharray:none;stroke-dashoffset:0;stroke-opacity:1;color-rendering:auto;image-rendering:auto;shape-rendering:auto;text-rendering:auto;enable-background:accumulate"
       id="rect4294-2-9-1"
       width="155.00085"
       height="155.00085"
       x="-809.28168"
       y="866.18976" />
  </g>
</svg>
