<?xml version="1.0" encoding="UTF-8" standalone="no"?>
<!-- Created with Inkscape (http://www.inkscape.org/) -->

<svg
   xmlns:dc="http://purl.org/dc/elements/1.1/"
   xmlns:cc="http://creativecommons.org/ns#"
   xmlns:rdf="http://www.w3.org/1999/02/22-rdf-syntax-ns#"
   xmlns:svg="http://www.w3.org/2000/svg"
   xmlns="http://www.w3.org/2000/svg"
   xmlns:sodipodi="http://sodipodi.sourceforge.net/DTD/sodipodi-0.dtd"
   xmlns:inkscape="http://www.inkscape.org/namespaces/inkscape"
   width="720"
   height="720"
   viewBox="0 0 720.00001 720.00001"
   id="svg2"
   version="1.1"
   inkscape:version="0.91 r"
   sodipodi:docname="tools-search.svg">
  <defs
     id="defs4" />
  <sodipodi:namedview
     id="base"
     pagecolor="#ffffff"
     bordercolor="#666666"
     borderopacity="1.0"
     inkscape:pageopacity="0.0"
     inkscape:pageshadow="2"
     inkscape:zoom="0.25"
     inkscape:cx="-608.98136"
     inkscape:cy="391.09427"
     inkscape:document-units="px"
     inkscape:current-layer="layer1"
     showgrid="false"
     units="px"
     inkscape:snap-object-midpoints="true"
     inkscape:snap-center="true"
     showguides="true"
     inkscape:guide-bbox="true"
     inkscape:window-width="1366"
     inkscape:window-height="721"
     inkscape:window-x="0"
     inkscape:window-y="0"
     inkscape:window-maximized="1"
     inkscape:object-paths="true"
     inkscape:snap-global="false"
     inkscape:snap-intersection-paths="true"
     inkscape:object-nodes="true"
     inkscape:snap-smooth-nodes="true"
     inkscape:snap-midpoints="true">
    <sodipodi:guide
       position="360.00002,359.99998"
       orientation="1,0"
       id="guide4528" />
    <sodipodi:guide
       position="360.00001,359.99998"
       orientation="0,1"
       id="guide4530" />
    <sodipodi:guide
       position="1.0556718e-05,462"
       orientation="1,0"
       id="guide4532" />
    <sodipodi:guide
       position="190,719.99999"
       orientation="0,1"
       id="guide4534" />
    <sodipodi:guide
       position="244,-2.2617188e-05"
       orientation="0,1"
       id="guide4536" />
    <sodipodi:guide
       position="720.00002,258"
       orientation="1,0"
       id="guide4538" />
  </sodipodi:namedview>
  <metadata
     id="metadata7">
    <rdf:RDF>
      <cc:Work
         rdf:about="">
        <dc:format>image/svg+xml</dc:format>
        <dc:type
           rdf:resource="http://purl.org/dc/dcmitype/StillImage" />
        <dc:title></dc:title>
      </cc:Work>
    </rdf:RDF>
  </metadata>
  <g
     inkscape:label="Layer 1"
     inkscape:groupmode="layer"
     id="layer1"
     transform="translate(0,-332.36216)">
    <path
       style="opacity:0.98999999;fill:#464646;fill-opacity:1;stroke:#000000;stroke-width:0;stroke-miterlimit:4;stroke-dasharray:none;stroke-opacity:1"
       d="m -361.24212,1316.3602 c -27.7,0 -50,22.3 -50,50 l 0,40.002 -74.58789,0 c -27.7,0 -50,22.3 -50,50 l 0,530 c 0,27.7 22.3,50 50,50 l 310,0 310,0 c 27.7,0 50,-22.3 50,-50 l 0,-530 c 0,-27.7 -22.3,-50 -50,-50 l -74.587892,0 0,-40.002 c 0,-27.7 -22.3,-50 -50.0000004,-50 l -35.2519496,0 c -27.70001,0 -50,22.3 -50,50 l 0,40.002 -100.160158,0 -100.16016,0 0,-40.002 c 0,-27.7 -22.3,-50 -50,-50 l -35.25195,0 z m 10.75977,27.0449 12.65429,0 c 17.26753,0 31.16992,13.9005 31.16993,31.168 l 0,77.7226 c 0,17.2676 -13.9024,31.168 -31.16993,31.168 l -12.65429,0 c -17.26753,0 -31.16993,-13.9004 -31.16993,-31.168 l 0,-77.7226 c 0,-17.2675 13.9024,-31.168 31.16993,-31.168 z m 336.650388,0 12.6542896,0 c 17.2675304,0 31.1699304,13.9005 31.1699304,31.168 l 0,77.7226 c 0,17.2676 -13.9024,31.168 -31.1699304,31.168 l -12.6542896,0 c -17.26753,0 -31.16993,-13.9004 -31.16993,-31.168 l 0,-77.7226 c 0,-17.2675 13.9024,-31.168 31.16993,-31.168 z m -492.005858,170.0586 154.95508,0 0,155 -154.95508,0 0,-155 z m 168.3164,0 155.00977,0 0,155 -155.00977,0 0,-155 z m 168.37305,0 155.009768,0 0,155 -155.009768,0 0,-155 z m 168.37108758,0 154.95508242,0 0,155 -154.95508242,0 0,-155 z M -505.83782,1681.827 l 154.95508,0 0,155 -154.95508,0 0,-155 z m 168.3164,0 155.00977,0 0,155 -155.00977,0 0,-155 z m 168.37305,0 155.009768,0 0,155 -155.009768,0 0,-155 z m 168.37108758,0 154.95508242,0 0,155 -154.95508242,0 0,-155 z m -505.06053758,168.3633 154.95508,0 0,156.1719 -154.95508,0 0,-156.1719 z m 168.3164,0 155.00977,0 0,156.1719 -155.00977,0 0,-156.1719 z m 168.37305,0 155.009768,0 0,156.1719 -155.009768,0 0,-156.1719 z m 168.37108758,0 154.95508242,0 0,156.1719 -154.95508242,0 0,-156.1719 z"
       id="rect4171"
       inkscape:connector-curvature="0" />
    <rect
       style="opacity:0.98999999;fill:#22ff00;fill-opacity:1;stroke:#000000;stroke-width:0;stroke-miterlimit:4;stroke-dasharray:none;stroke-opacity:1"
       id="rect4219"
       width="29.99999"
       height="13.75"
       x="640.46442"
       y="300.28088"
       transform="matrix(0,1,-1,0,0,0)" />
    <rect
       style="color:#000000;clip-rule:nonzero;display:inline;overflow:visible;visibility:visible;opacity:0.98999999;isolation:auto;mix-blend-mode:normal;color-interpolation:sRGB;color-interpolation-filters:linearRGB;solid-color:#000000;solid-opacity:1;fill:#00ff00;fill-opacity:1;fill-rule:nonzero;stroke:#000000;stroke-width:0;stroke-linecap:butt;stroke-linejoin:miter;stroke-miterlimit:4;stroke-dasharray:none;stroke-dashoffset:0;stroke-opacity:1;color-rendering:auto;image-rendering:auto;shape-rendering:auto;text-rendering:auto;enable-background:accumulate"
       id="rect4294"
       width="155.00085"
       height="155.00085"
       x="-640.91864"
       y="529.46356" />
    <rect
       style="color:#000000;clip-rule:nonzero;display:inline;overflow:visible;visibility:visible;opacity:0.98999999;isolation:auto;mix-blend-mode:normal;color-interpolation:sRGB;color-interpolation-filters:linearRGB;solid-color:#000000;solid-opacity:1;fill:#00ff00;fill-opacity:1;fill-rule:nonzero;stroke:#000000;stroke-width:0;stroke-linecap:butt;stroke-linejoin:miter;stroke-miterlimit:4;stroke-dasharray:none;stroke-dashoffset:0;stroke-opacity:1;color-rendering:auto;image-rendering:auto;shape-rendering:auto;text-rendering:auto;enable-background:accumulate"
       id="rect4294-2"
       width="155.00085"
       height="155.00085"
       x="-809.28174"
       y="529.46356" />
    <rect
       style="color:#000000;clip-rule:nonzero;display:inline;overflow:visible;visibility:visible;opacity:0.98999999;isolation:auto;mix-blend-mode:normal;color-interpolation:sRGB;color-interpolation-filters:linearRGB;solid-color:#000000;solid-opacity:1;fill:#00ff00;fill-opacity:1;fill-rule:nonzero;stroke:#000000;stroke-width:0;stroke-linecap:butt;stroke-linejoin:miter;stroke-miterlimit:4;stroke-dasharray:none;stroke-dashoffset:0;stroke-opacity:1;color-rendering:auto;image-rendering:auto;shape-rendering:auto;text-rendering:auto;enable-background:accumulate"
       id="rect4294-1"
       width="155.00085"
       height="155.00085"
       x="-640.91864"
       y="697.82666" />
    <rect
       style="color:#000000;clip-rule:nonzero;display:inline;overflow:visible;visibility:visible;opacity:0.98999999;isolation:auto;mix-blend-mode:normal;color-interpolation:sRGB;color-interpolation-filters:linearRGB;solid-color:#000000;solid-opacity:1;fill:#00ff00;fill-opacity:1;fill-rule:nonzero;stroke:#000000;stroke-width:0;stroke-linecap:butt;stroke-linejoin:miter;stroke-miterlimit:4;stroke-dasharray:none;stroke-dashoffset:0;stroke-opacity:1;color-rendering:auto;image-rendering:auto;shape-rendering:auto;text-rendering:auto;enable-background:accumulate"
       id="rect4294-2-9"
       width="155.00085"
       height="155.00085"
       x="-809.28168"
       y="697.82666" />
    <rect
       style="color:#000000;clip-rule:nonzero;display:inline;overflow:visible;visibility:visible;opacity:0.98999999;isolation:auto;mix-blend-mode:normal;color-interpolation:sRGB;color-interpolation-filters:linearRGB;solid-color:#000000;solid-opacity:1;fill:#00ff00;fill-opacity:1;fill-rule:nonzero;stroke:#000000;stroke-width:0;stroke-linecap:butt;stroke-linejoin:miter;stroke-miterlimit:4;stroke-dasharray:none;stroke-dashoffset:0;stroke-opacity:1;color-rendering:auto;image-rendering:auto;shape-rendering:auto;text-rendering:auto;enable-background:accumulate"
       id="rect4294-1-7"
       width="155.00085"
       height="155.00085"
       x="-640.91858"
       y="866.18976" />
    <rect
       style="color:#000000;clip-rule:nonzero;display:inline;overflow:visible;visibility:visible;opacity:0.98999999;isolation:auto;mix-blend-mode:normal;color-interpolation:sRGB;color-interpolation-filters:linearRGB;solid-color:#000000;solid-opacity:1;fill:#00ff00;fill-opacity:1;fill-rule:nonzero;stroke:#000000;stroke-width:0;stroke-linecap:butt;stroke-linejoin:miter;stroke-miterlimit:4;stroke-dasharray:none;stroke-dashoffset:0;stroke-opacity:1;color-rendering:auto;image-rendering:auto;shape-rendering:auto;text-rendering:auto;enable-background:accumulate"
       id="rect4294-2-9-1"
       width="155.00085"
       height="155.00085"
       x="-809.28168"
       y="866.18976" />
    <path
       style="color:#000000;font-style:normal;font-variant:normal;font-weight:normal;font-stretch:normal;font-size:medium;line-height:normal;font-family:sans-serif;text-indent:0;text-align:start;text-decoration:none;text-decoration-line:none;text-decoration-style:solid;text-decoration-color:#000000;letter-spacing:normal;word-spacing:normal;text-transform:none;direction:ltr;block-progression:tb;writing-mode:lr-tb;baseline-shift:baseline;text-anchor:start;white-space:normal;clip-rule:nonzero;display:inline;overflow:visible;visibility:visible;opacity:0.98999999;isolation:auto;mix-blend-mode:normal;color-interpolation:sRGB;color-interpolation-filters:linearRGB;solid-color:#000000;solid-opacity:1;fill:#000000;fill-opacity:1;fill-rule:nonzero;stroke:none;stroke-width:30;stroke-linecap:butt;stroke-linejoin:miter;stroke-miterlimit:4;stroke-dasharray:none;stroke-dashoffset:0;stroke-opacity:1;color-rendering:auto;image-rendering:auto;shape-rendering:auto;text-rendering:auto;enable-background:accumulate"
       d="m 1392.2939,-789.40624 c -25.2795,-25.27945 -66.6444,-25.27949 -91.9239,0 l -413.29003,413.29009 c -25.27945,25.27945 -29.40705,71.59346 0,91.92389 L 1300.3687,1.533019 c 29.407,20.3304 62.5168,20.3304 91.9238,0 l 413.2901,-285.726649 c 29.4071,-20.33049 25.2794,-66.64446 0,-91.92388 z m -21.2132,21.21321 413.2887,413.28872 c 13.8943,13.8943 16.1629,38.32329 0,49.49748 l -413.2901,285.726649 c -16.1629,11.1741 -33.3345,11.1741 -49.4974,0 L 908.29317,-305.40547 c -16.16291,-11.17415 -13.89427,-35.60321 0,-49.49747 l 413.29003,-413.29009 c 13.8943,-13.8943 35.6032,-13.89427 49.4975,0 z"
       id="rect4542-0"
       inkscape:connector-curvature="0"
       sodipodi:nodetypes="ssssssssssssssssss" />
    <path
       style="color:#000000;clip-rule:nonzero;display:inline;overflow:visible;visibility:visible;opacity:0.98999999;isolation:auto;mix-blend-mode:normal;color-interpolation:sRGB;color-interpolation-filters:linearRGB;solid-color:#000000;solid-opacity:1;fill:#1a1a1a;fill-opacity:1;fill-rule:nonzero;stroke:#000000;stroke-width:0;stroke-linecap:butt;stroke-linejoin:miter;stroke-miterlimit:4;stroke-dasharray:none;stroke-dashoffset:0;stroke-opacity:1;color-rendering:auto;image-rendering:auto;shape-rendering:auto;text-rendering:auto;enable-background:accumulate"
       d="m 340.53824,1449.871 c -27.7,0 -50,22.3 -50,50 l 0,89.9511 293.34569,178.3028 c 9.32746,5.5182 38.574,23.9804 66.6543,23.9804 28.0803,0 57.32684,-18.4622 66.6543,-23.9804 l 293.34567,-178.3028 0,-89.9511 c 0,-27.7 -22.29997,-50 -49.99997,-50 l -310,0 z m -50,175.8281 0,314.1719 c 0,27.7 22.3,50 50,50 l 309.99999,0 310,0 c 27.7,0 49.99997,-22.3 49.99997,-50 l 0,-314.1719 -274.78513,165.4707 c -21.98867,12.8316 -50.70714,33.3066 -85.21484,33.3066 -34.5077,0 -63.22617,-20.475 -85.21484,-33.3066 z"
       id="rect4505-8"
       inkscape:connector-curvature="0"
       sodipodi:nodetypes="sscczccsscscsscssccscc" />
    <flowRoot
       xml:space="preserve"
       id="flowRoot4598"
       style="font-style:normal;font-weight:normal;font-size:900px;line-height:125%;font-family:sans-serif;letter-spacing:-2.83999944px;word-spacing:0px;fill:none;fill-opacity:1;stroke:none;stroke-width:48.050944;stroke-linecap:butt;stroke-linejoin:miter;stroke-opacity:1;stroke-miterlimit:4;stroke-dasharray:none"
       transform="matrix(0.62433737,0,0,0.62433737,-258.20271,770.87362)"><flowRegion
         id="flowRegion4600"><rect
           id="rect4602"
           width="1536"
           height="1232"
           x="2080"
           y="1144"
           style="font-size:900px;letter-spacing:-2.83999944px;fill:none;stroke-width:48.050944;stroke-miterlimit:4;stroke-dasharray:none" /></flowRegion><flowPara
         id="flowPara4604"
         style="font-style:normal;font-variant:normal;font-weight:bold;font-stretch:normal;font-size:900px;line-height:100%;font-family:sans-serif;-inkscape-font-specification:'sans-serif Bold';letter-spacing:-50px;fill:none;stroke-width:48.050944;stroke-miterlimit:4;stroke-dasharray:none">EN</flowPara></flowRoot>    <circle
       style="color:#000000;clip-rule:nonzero;display:inline;overflow:visible;visibility:visible;opacity:0.98999999;isolation:auto;mix-blend-mode:normal;color-interpolation:sRGB;color-interpolation-filters:linearRGB;solid-color:#000000;solid-opacity:1;fill:none;fill-opacity:1;fill-rule:nonzero;stroke:#000000;stroke-width:92.02837372;stroke-linecap:butt;stroke-linejoin:miter;stroke-miterlimit:4;stroke-dasharray:none;stroke-dashoffset:0;stroke-opacity:1;color-rendering:auto;image-rendering:auto;shape-rendering:auto;text-rendering:auto;enable-background:accumulate"
       id="path4670"
       cx="284.88867"
       cy="617.25079"
       r="236.68857" />
    <path
       style="fill:none;fill-rule:evenodd;stroke:#000000;stroke-width:92.02837372;stroke-linecap:round;stroke-linejoin:round;stroke-miterlimit:4;stroke-dasharray:none;stroke-opacity:1"
       d="m 452.25275,784.61494 220.5224,220.52226"
       id="path4674"
       inkscape:connector-curvature="0" />
  </g>
</svg>
